custom-analysis
version=1
nRows=4
nColumns=98
inDegrees=no

This file contains tibia displacement and acting force.

Units are S.I. units (seconds, meters, Newtons, ...)
Angles are in degrees.

endheader
time	APT	SIT	knee_angle	aACL_R_force	pACL_R_force	aPCL_R_force	pPCL_R_force	aMCL_R_force	mMCL_R_force	pMCL_R_force	aLCL_R_force	mLCL_R_force	pLCL_R_force	aPCL_L_force	pPCL_L_force	aMCL_L_force	aLCL_L_force	aACL_R_length	pACL_R_length	aPCL_R_length	pPCL_R_length	aMCL_R_length	mMCL_R_length	pMCL_R_length	aLCL_R_length	mLCL_R_length	pLCL_R_length	aPCL_L_length	pPCL_L_length	aMCL_L_length	aLCL_L_length	aACL_R_strain	pACL_R_strain	aPCL_R_strain	pPCL_R_strain	aMCL_R_strain	mMCL_R_strain	pMCL_R_strain	aLCL_R_strain	mLCL_R_strain	pLCL_R_strain	aPCL_L_strain	pPCL_L_strain	aMCL_L_strain	aLCL_L_strain	femur_lat_meniscii_r.femur_lat_r.force.X	femur_lat_meniscii_r.femur_lat_r.force.Y	femur_lat_meniscii_r.femur_lat_r.force.Z	femur_lat_meniscii_r.femur_lat_r.torque.X	femur_lat_meniscii_r.femur_lat_r.torque.Y	femur_lat_meniscii_r.femur_lat_r.torque.Z	femur_lat_meniscii_r.meniscus_lat_r.force.X	femur_lat_meniscii_r.meniscus_lat_r.force.Y	femur_lat_meniscii_r.meniscus_lat_r.force.Z	femur_lat_meniscii_r.meniscus_lat_r.torque.X	femur_lat_meniscii_r.meniscus_lat_r.torque.Y	femur_lat_meniscii_r.meniscus_lat_r.torque.Z	femur_med_meniscii_r.femur_med_r.force.X	femur_med_meniscii_r.femur_med_r.force.Y	femur_med_meniscii_r.femur_med_r.force.Z	femur_med_meniscii_r.femur_med_r.torque.X	femur_med_meniscii_r.femur_med_r.torque.Y	femur_med_meniscii_r.femur_med_r.torque.Z	femur_med_meniscii_r.meniscus_med_r.force.X	femur_med_meniscii_r.meniscus_med_r.force.Y	femur_med_meniscii_r.meniscus_med_r.force.Z	femur_med_meniscii_r.meniscus_med_r.torque.X	femur_med_meniscii_r.meniscus_med_r.torque.Y	femur_med_meniscii_r.meniscus_med_r.torque.Z	femur_med_tibia_r.tibia_upper_r.force.X	femur_med_tibia_r.tibia_upper_r.force.Y	femur_med_tibia_r.tibia_upper_r.force.Z	femur_med_tibia_r.tibia_upper_r.torque.X	femur_med_tibia_r.tibia_upper_r.torque.Y	femur_med_tibia_r.tibia_upper_r.torque.Z	femur_med_tibia_r.femur_med_r.force.X	femur_med_tibia_r.femur_med_r.force.Y	femur_med_tibia_r.femur_med_r.force.Z	femur_med_tibia_r.femur_med_r.torque.X	femur_med_tibia_r.femur_med_r.torque.Y	femur_med_tibia_r.femur_med_r.torque.Z	femur_lat_tibia_r.tibia_upper_r.force.X	femur_lat_tibia_r.tibia_upper_r.force.Y	femur_lat_tibia_r.tibia_upper_r.force.Z	femur_lat_tibia_r.tibia_upper_r.torque.X	femur_lat_tibia_r.tibia_upper_r.torque.Y	femur_lat_tibia_r.tibia_upper_r.torque.Z	femur_lat_tibia_r.femur_lat_r.force.X	femur_lat_tibia_r.femur_lat_r.force.Y	femur_lat_tibia_r.femur_lat_r.force.Z	femur_lat_tibia_r.femur_lat_r.torque.X	femur_lat_tibia_r.femur_lat_r.torque.Y	femur_lat_tibia_r.femur_lat_r.torque.Z	femur_lat_meniscii_force_r	femur_med_meniscii_force_r	femur_lat_tibia_force_r	femur_med_tibia_force_r
      0.21173463	      0.00482403	      0.00009375	     80.00011296	     67.04777026	     21.63924533	    623.35634798	    265.40388862	     13.53003954	      1.94041248	      0.00000000	      0.00000000	      0.00000000	      0.00000000	      0.00000000	      0.00000000	      0.00000001	      0.00000000	      0.03391559	      0.02638135	      0.03532883	      0.03193648	      0.06265033	      0.06066436	      0.05690765	      0.04917897	      0.04362664	      0.03819626	      0.01525851	      0.01651186	      0.06550154	      0.04489616	      0.09385727	      0.05278224	      0.13614702	      0.06854566	      0.04370252	      0.01456453	     -0.03099621	     -0.12144639	     -0.22535992	     -0.27026583	      0.00000079	     -0.32847694	      0.00000060	     -0.00000086	    231.90897200	     49.37491121	     42.10507069	    -18.28009467	      5.77472863	     94.48711253	   -231.90897200	    -49.37491121	    -42.10507069	      1.76364383	     -8.12442865	     -0.76136163	     95.67760053	    -39.63419334	    -14.43077555	      5.08695512	     -1.86265711	     38.71585632	    -95.67760053	     39.63419334	     14.43077555	      0.45722089	      1.76912021	     -1.70047104	   -501.15096890	    -51.85419071	     73.72885332	     -1.17632113	      8.22626813	     -2.10090261	    501.15096890	     51.85419071	    -73.72885332	     30.80752339	     -8.76738640	    203.13002218	    -44.09369039	    -16.91321826	    -13.23640843	      0.60940054	     -1.67558450	      0.11016102	     44.09369039	     16.91321826	     13.23640843	     -5.79447317	      1.08476348	     17.91751418	    240.81629955	    104.56251626	     49.04602932	    509.19259082
      0.21462344	      0.00483429	      0.00009378	     80.00011296	     67.22376243	     21.66032956	    622.66106433	    264.61965736	     13.34246433	      1.74449672	      0.00000000	      0.00000000	      0.00000000	      0.00000000	      0.00000000	      0.00000000	      0.00000001	      0.00000000	      0.03392234	      0.02638621	      0.03532531	      0.03193250	      0.06265300	      0.06066598	      0.05690845	      0.04917752	      0.04362494	      0.03819357	      0.01525851	      0.01651186	      0.06550154	      0.04489616	      0.09407485	      0.05297615	      0.13603382	      0.06841245	      0.04374691	      0.01459147	     -0.03098268	     -0.12147237	     -0.22539024	     -0.27031711	      0.00000079	     -0.32847694	      0.00000060	     -0.00000086	    232.05229703	     49.93781799	     42.23206783	    -18.34528381	      5.77963126	     94.54262625	   -232.05229703	    -49.93781799	    -42.23206783	      1.78088330	     -8.13448295	     -0.74178846	     96.03998149	    -39.54453164	    -14.39931564	      5.07643398	     -1.86984436	     38.86094063	    -96.03998149	     39.54453164	     14.39931564	      0.45567795	      1.77325773	     -1.69782720	   -501.70629504	    -52.03157154	     73.16170240	     -1.17323684	      8.21329402	     -2.08963466	    501.70629504	     52.03157154	    -73.16170240	     30.58041087	     -8.77457665	    203.35012246	    -43.18858066	    -16.55930477	    -12.95886028	      0.59663944	     -1.64113048	      0.10786597	     43.18858066	     16.55930477	     12.95886028	     -5.67305935	      1.06241822	     17.55004826	    241.09251705	    104.85603615	     48.03536336	    509.67551013
      0.21780606	      0.00484504	      0.00009384	     80.00011296	     67.45729009	     21.72646109	    621.83215315	    263.53195008	     13.04566105	      1.41798380	      0.00000000	      0.00000000	      0.00000000	      0.00000000	      0.00000000	      0.00000000	      0.00000001	      0.00000000	      0.03392928	      0.02639115	      0.03532161	      0.03192833	      0.06265583	      0.06066771	      0.05690934	      0.04917589	      0.04362305	      0.03819067	      0.01525851	      0.01651186	      0.06550154	      0.04489616	      0.09429867	      0.05317314	      0.13591469	      0.06827295	      0.04379409	      0.01462052	     -0.03096746	     -0.12150145	     -0.22542377	     -0.27037258	      0.00000079	     -0.32847694	      0.00000060	     -0.00000086	    232.47043275	     50.05857645	     42.10322118	    -18.29592325	      5.78742631	     94.71574290	   -232.47043275	    -50.05857645	    -42.10322118	      1.78318799	     -8.14180926	     -0.74241591	     96.49362341	    -39.68433228	    -14.54843552	      5.13395960	     -1.88044351	     39.04507453	    -96.49362341	     39.68433228	     14.54843552	      0.45684068	      1.78530785	     -1.70415421	   -502.31304915	    -52.24529474	     72.76894006	     -1.16905040	      8.20856066	     -2.07755090	    502.31304915	     52.24529474	    -72.76894006	     30.42186924	     -8.78548332	    203.59115163	    -42.35240987	    -16.23402717	    -12.70902255	      0.58498527	     -1.60958010	      0.10584719	     42.35240987	     16.23402717	     12.70902255	     -5.56364487	      1.04186363	     17.21055582	    241.49750394	    105.34477948	     47.10402864	    510.23846269
      0.22098868	      0.00485552	      0.00009388	     80.00011296	     68.05828883	     22.24251961	    621.70489524	    264.23867368	     14.01145497	      2.39929858	      0.00000000	      0.00000000	      0.00000000	      0.00000000	      0.00000000	      0.00000000	      0.00000001	      0.00000000	      0.03393616	      0.02639610	      0.03531797	      0.03192425	      0.06265869	      0.06066951	      0.05691031	      0.04917415	      0.04362105	      0.03818768	      0.01525851	      0.01651186	      0.06550154	      0.04489616	      0.09452061	      0.05337051	      0.13579785	      0.06813655	      0.04384182	      0.01465056	     -0.03095104	     -0.12153248	     -0.22545922	     -0.27042971	      0.00000079	     -0.32847694	      0.00000060	     -0.00000086	    231.59457993	     50.40435439	     42.25073659	    -18.36476563	      5.76971282	     94.35505407	   -231.59457993	    -50.40435439	    -42.25073659	      1.79480347	     -8.12466202	     -0.71850618	     96.20175917	    -39.82782659	    -14.62871561	      5.16358352	     -1.87842107	     38.93055350	    -96.20175917	     39.82782659	     14.62871561	      0.45845151	      1.78663782	     -1.70888611	   -501.71172840	    -52.19208803	     72.56450100	     -1.16476826	      8.19797779	     -2.06600633	    501.71172840	     52.19208803	    -72.56450100	     30.33686501	     -8.77931940	    203.34406170	    -41.47250906	    -15.94916067	    -12.39959158	      0.57367161	     -1.57449582	      0.10600730	     41.47250906	     15.94916067	     12.39959158	     -5.43061478	      1.01963587	     16.85254885	    240.75251428	    105.14291968	     46.13127578	    509.61189082
